<?xml version="1.0" encoding="UTF-8" standalone="no"?>
<!-- Created with Inkscape (http://www.inkscape.org/) -->

<svg
   width="190.5mm"
   height="80.697929mm"
   viewBox="0 0 190.5 80.697929"
   version="1.1"
   id="svg5"
   xmlns="http://www.w3.org/2000/svg"
   xmlns:svg="http://www.w3.org/2000/svg">
  <defs
     id="defs2">
    <marker
       style="overflow:visible"
       id="Arrow2Mend"
       refX="0"
       refY="0"
       orient="auto">
      <path
         transform="scale(-0.6)"
         d="M 8.7185878,4.0337352 -2.2072895,0.01601326 8.7185884,-4.0017078 c -1.7454984,2.3720609 -1.7354408,5.6174519 -6e-7,8.035443 z"
         style="fill:context-stroke;fill-rule:evenodd;stroke:context-stroke;stroke-width:0.625;stroke-linejoin:round"
         id="path1752" />
    </marker>
    <marker
       style="overflow:visible"
       id="Arrow2Mstart"
       refX="0"
       refY="0"
       orient="auto">
      <path
         transform="scale(0.6)"
         d="M 8.7185878,4.0337352 -2.2072895,0.01601326 8.7185884,-4.0017078 c -1.7454984,2.3720609 -1.7354408,5.6174519 -6e-7,8.035443 z"
         style="fill:context-stroke;fill-rule:evenodd;stroke:context-stroke;stroke-width:0.625;stroke-linejoin:round"
         id="path1749" />
    </marker>
    <marker
       style="overflow:visible"
       id="Arrow2Mstart-9"
       refX="0"
       refY="0"
       orient="auto">
      <path
         transform="scale(0.6)"
         d="M 8.7185878,4.0337352 -2.2072895,0.01601326 8.7185884,-4.0017078 c -1.7454984,2.3720609 -1.7354408,5.6174519 -6e-7,8.035443 z"
         style="fill:context-stroke;fill-rule:evenodd;stroke:context-stroke;stroke-width:0.625;stroke-linejoin:round"
         id="path1749-0" />
    </marker>
    <marker
       style="overflow:visible"
       id="Arrow2Mend-9"
       refX="0"
       refY="0"
       orient="auto">
      <path
         transform="scale(-0.6)"
         d="M 8.7185878,4.0337352 -2.2072895,0.01601326 8.7185884,-4.0017078 c -1.7454984,2.3720609 -1.7354408,5.6174519 -6e-7,8.035443 z"
         style="fill:context-stroke;fill-rule:evenodd;stroke:context-stroke;stroke-width:0.625;stroke-linejoin:round"
         id="path1752-1" />
    </marker>
    <marker
       style="overflow:visible"
       id="Arrow2Mstart-7"
       refX="0"
       refY="0"
       orient="auto">
      <path
         transform="scale(0.6)"
         d="M 8.7185878,4.0337352 -2.2072895,0.01601326 8.7185884,-4.0017078 c -1.7454984,2.3720609 -1.7354408,5.6174519 -6e-7,8.035443 z"
         style="fill:context-stroke;fill-rule:evenodd;stroke:context-stroke;stroke-width:0.625;stroke-linejoin:round"
         id="path1749-1" />
    </marker>
    <marker
       style="overflow:visible"
       id="Arrow2Mend-1"
       refX="0"
       refY="0"
       orient="auto">
      <path
         transform="scale(-0.6)"
         d="M 8.7185878,4.0337352 -2.2072895,0.01601326 8.7185884,-4.0017078 c -1.7454984,2.3720609 -1.7354408,5.6174519 -6e-7,8.035443 z"
         style="fill:context-stroke;fill-rule:evenodd;stroke:context-stroke;stroke-width:0.625;stroke-linejoin:round"
         id="path1752-5" />
    </marker>
    <marker
       style="overflow:visible"
       id="Arrow2Mstart-9-7"
       refX="0"
       refY="0"
       orient="auto">
      <path
         transform="scale(0.6)"
         d="M 8.7185878,4.0337352 -2.2072895,0.01601326 8.7185884,-4.0017078 c -1.7454984,2.3720609 -1.7354408,5.6174519 -6e-7,8.035443 z"
         style="fill:context-stroke;fill-rule:evenodd;stroke:context-stroke;stroke-width:0.625;stroke-linejoin:round"
         id="path1749-0-8" />
    </marker>
    <marker
       style="overflow:visible"
       id="Arrow2Mend-9-5"
       refX="0"
       refY="0"
       orient="auto">
      <path
         transform="scale(-0.6)"
         d="M 8.7185878,4.0337352 -2.2072895,0.01601326 8.7185884,-4.0017078 c -1.7454984,2.3720609 -1.7354408,5.6174519 -6e-7,8.035443 z"
         style="fill:context-stroke;fill-rule:evenodd;stroke:context-stroke;stroke-width:0.625;stroke-linejoin:round"
         id="path1752-1-7" />
    </marker>
    <marker
       style="overflow:visible"
       id="Arrow2Mstart-7-1"
       refX="0"
       refY="0"
       orient="auto">
      <path
         transform="scale(0.6)"
         d="M 8.7185878,4.0337352 -2.2072895,0.01601326 8.7185884,-4.0017078 c -1.7454984,2.3720609 -1.7354408,5.6174519 -6e-7,8.035443 z"
         style="fill:context-stroke;fill-rule:evenodd;stroke:context-stroke;stroke-width:0.625;stroke-linejoin:round"
         id="path1749-1-8" />
    </marker>
    <marker
       style="overflow:visible"
       id="Arrow2Mend-1-5"
       refX="0"
       refY="0"
       orient="auto">
      <path
         transform="scale(-0.6)"
         d="M 8.7185878,4.0337352 -2.2072895,0.01601326 8.7185884,-4.0017078 c -1.7454984,2.3720609 -1.7354408,5.6174519 -6e-7,8.035443 z"
         style="fill:context-stroke;fill-rule:evenodd;stroke:context-stroke;stroke-width:0.625;stroke-linejoin:round"
         id="path1752-5-9" />
    </marker>
  </defs>
  <g
     id="layer1"
     transform="translate(-15.875,-60.85416)">
    <path
       style="fill:#ff0050;fill-opacity:0.0995763;stroke:none;stroke-width:0.207553px;stroke-linecap:butt;stroke-linejoin:miter;stroke-opacity:1"
       d="M 15.875,111.45693 57.385563,78.24847 H 165.31303 l -41.51057,33.20846 z"
       id="path2631" />
    <circle
       style="fill:#000000;fill-opacity:1;stroke:none;stroke-width:0.415106"
       id="path1056"
       cx="121.72694"
       cy="140.51433"
       r="1.0377641" />
    <g
       id="path1333">
      <path
         style="color:#000000;fill:#606060;-inkscape-stroke:none"
         d="m 121.52539,106.26758 v 32.17187 h 0.40234 v -32.17187 z"
         id="path14193" />
      <g
         id="g14175">
        <g
           id="path14185">
          <path
             style="color:#000000;fill:#606060;fill-rule:evenodd;stroke-width:0.151017;stroke-linejoin:round;-inkscape-stroke:none"
             d="m 122.7016,136.33214 -0.97079,2.63999 -0.97079,-2.63999 c 0.57315,0.42176 1.35733,0.41933 1.94158,0 z"
             id="path14189" />
          <path
             style="color:#000000;fill:#606060;fill-rule:evenodd;stroke-linejoin:round;-inkscape-stroke:none"
             d="m 122.71875,136.25781 a 0.07551605,0.07551605 0 0 0 -0.0606,0.0137 c -0.55836,0.40075 -1.30696,0.4022 -1.85351,0 a 0.07551605,0.07551605 0 0 0 -0.11524,0.0859 l 0.97071,2.64063 a 0.07551605,0.07551605 0 0 0 0.14062,0 l 0.97266,-2.64063 a 0.07551605,0.07551605 0 0 0 -0.0547,-0.0996 z m -1.83789,0.18946 c 0.52947,0.30812 1.16265,0.30684 1.69922,0 l -0.84961,2.30664 z"
             id="path14191" />
        </g>
        <g
           id="path14177">
          <path
             style="color:#000000;fill:#606060;fill-rule:evenodd;stroke-width:0.151017;stroke-linejoin:round;-inkscape-stroke:none"
             d="m 120.75228,108.37476 0.97079,-2.63999 0.97079,2.63999 c -0.57315,-0.42176 -1.35733,-0.41933 -1.94158,0 z"
             id="path14181" />
          <path
             style="color:#000000;fill:#606060;fill-rule:evenodd;stroke-linejoin:round;-inkscape-stroke:none"
             d="m 121.72266,105.66016 a 0.07551605,0.07551605 0 0 0 -0.0703,0.0488 l -0.9707,2.64063 a 0.07551605,0.07551605 0 0 0 0.11524,0.0859 c 0.55835,-0.40075 1.305,-0.40219 1.85156,0 a 0.07551605,0.07551605 0 0 0 0.11719,-0.0859 l -0.97266,-2.64063 a 0.07551605,0.07551605 0 0 0 -0.0703,-0.0488 z m 0,0.29297 0.84961,2.30664 c -0.52953,-0.30817 -1.16067,-0.30695 -1.69727,0 z"
             id="path14183" />
        </g>
      </g>
    </g>
    <path
       style="color:#000000;fill:#000000;-inkscape-stroke:none"
       d="m 88.226562,83.273437 c -9.184272,0 -17.497609,0.931044 -23.53125,2.439454 -3.01682,0.754205 -5.462924,1.650053 -7.171875,2.660156 -1.70895,1.010103 -2.71289,2.151705 -2.71289,3.410156 0,1.258451 1.00394,2.400053 2.71289,3.410156 1.708951,1.010104 4.155055,1.907905 7.171875,2.66211 6.033641,1.50841 14.346978,2.437501 23.53125,2.437501 9.184273,0 17.499568,-0.929091 23.533208,-2.437501 3.01682,-0.754205 5.46292,-1.652006 7.17187,-2.66211 1.70895,-1.010103 2.71094,-2.151705 2.71094,-3.410156 0,-1.258451 -1.00199,-2.400053 -2.71094,-3.410156 -1.70895,-1.010103 -4.15505,-1.905951 -7.17187,-2.660156 -6.03364,-1.50841 -14.348935,-2.439454 -23.533208,-2.439454 z m 0,0.416016 c 9.15623,0 17.446198,0.929421 23.431638,2.425781 2.99272,0.748181 5.41058,1.638838 7.0625,2.615235 1.65193,0.976397 2.50782,2.018623 2.50782,3.052734 0,1.034112 -0.85589,2.076338 -2.50782,3.052734 -1.65192,0.976397 -4.06978,1.869008 -7.0625,2.617188 -5.98544,1.496361 -14.275408,2.425781 -23.431638,2.425781 -9.156229,0 -17.446197,-0.92942 -23.43164,-2.425781 -2.992722,-0.74818 -5.408623,-1.640791 -7.060547,-2.617188 -1.651924,-0.976396 -2.507813,-2.018622 -2.507813,-3.052734 0,-1.034111 0.855889,-2.076337 2.507813,-3.052734 1.651924,-0.976397 4.067825,-1.867054 7.060547,-2.615235 5.985443,-1.49636 14.275411,-2.425781 23.43164,-2.425781 z"
       id="path1517" />
    <g
       id="path1333-7">
      <path
         style="color:#000000;fill:#606060;-inkscape-stroke:none"
         d="m 70.876953,106.06641 v 0.40234 h 49.812497 v -0.40234 z"
         id="path14167" />
      <g
         id="g14149">
        <g
           id="path14159">
          <path
             style="color:#000000;fill:#606060;fill-rule:evenodd;stroke-width:0.151017;stroke-linejoin:round;-inkscape-stroke:none"
             d="m 72.983144,107.24277 -2.639989,-0.97079 2.639989,-0.97079 c -0.42176,0.57315 -0.41933,1.35733 0,1.94158 z"
             id="path14163" />
          <path
             style="color:#000000;fill:#606060;fill-rule:evenodd;stroke-linejoin:round;-inkscape-stroke:none"
             d="m 72.957031,105.23047 -2.640625,0.9707 a 0.07551605,0.07551605 0 0 0 0,0.14258 l 2.640625,0.9707 a 0.07551605,0.07551605 0 0 0 0.08789,-0.11523 c -0.400748,-0.55836 -0.402191,-1.30696 0,-1.85352 a 0.07551605,0.07551605 0 0 0 -0.08789,-0.11523 z m -0.08984,0.19336 c -0.306839,0.52864 -0.305575,1.1596 0,1.69531 L 70.5625,106.27148 Z"
             id="path14165" />
        </g>
        <g
           id="path14151">
          <path
             style="color:#000000;fill:#606060;fill-rule:evenodd;stroke-width:0.151017;stroke-linejoin:round;-inkscape-stroke:none"
             d="m 118.58252,105.29345 2.63999,0.97079 -2.63999,0.97079 c 0.42176,-0.57315 0.41933,-1.35733 0,-1.94158 z"
             id="path14155" />
          <path
             style="color:#000000;fill:#606060;fill-rule:evenodd;stroke-linejoin:round;-inkscape-stroke:none"
             d="m 118.60938,105.22266 a 0.07551605,0.07551605 0 0 0 -0.0879,0.11523 c 0.40075,0.55836 0.4022,1.30501 0,1.85156 a 0.07551605,0.07551605 0 0 0 0.0879,0.11719 l 2.63867,-0.9707 a 0.07551605,0.07551605 0 0 0 0,-0.14258 z m 0.0898,0.19531 2.30469,0.84766 -2.30664,0.84765 c 0.30773,-0.5288 0.30764,-1.15911 0.002,-1.69531 z"
             id="path14157" />
        </g>
      </g>
    </g>
    <g
       id="path1333-9">
      <path
         style="color:#000000;fill:#606060;-inkscape-stroke:none"
         d="M 86.707031,92.300781 70.728516,105.08398 70.988281,105.4082 86.966797,92.625 Z"
         id="path14145" />
      <g
         id="g14127">
        <g
           id="path14137">
          <path
             style="color:#000000;fill:#606060;fill-rule:evenodd;stroke-width:0.155665;stroke-linejoin:round;-inkscape-stroke:none"
             d="m 73.181019,104.67408 -2.750042,0.91855 1.499817,-2.48133 c 0.02959,0.73291 0.536494,1.36253 1.250225,1.56278 z"
             id="path14141" />
          <path
             style="color:#000000;fill:#606060;fill-rule:evenodd;stroke-linejoin:round;-inkscape-stroke:none"
             d="m 71.949219,103.03516 a 0.07784028,0.07784028 0 0 0 -0.08594,0.0352 l -1.498047,2.48242 a 0.07784028,0.07784028 0 0 0 0.08984,0.11329 l 2.75,-0.91797 a 0.07784028,0.07784028 0 0 0 -0.0039,-0.14844 c -0.682103,-0.19138 -1.165142,-0.79328 -1.19336,-1.49219 a 0.07784028,0.07784028 0 0 0 -0.05859,-0.0723 z m -0.03125,0.25 c 0.09349,0.62364 0.500068,1.12915 1.091797,1.36328 l -2.402344,0.80469 z"
             id="path14143" />
        </g>
        <g
           id="path14129">
          <path
             style="color:#000000;fill:#606060;fill-rule:evenodd;stroke-width:0.155665;stroke-linejoin:round;-inkscape-stroke:none"
             d="m 84.513009,93.035309 2.750042,-0.918554 -1.499817,2.481335 c -0.02959,-0.732913 -0.536494,-1.362531 -1.250225,-1.562781 z"
             id="path14133" />
          <path
             style="color:#000000;fill:#606060;fill-rule:evenodd;stroke-linejoin:round;-inkscape-stroke:none"
             d="m 87.238281,92.042969 -2.75,0.917968 a 0.07784028,0.07784028 0 0 0 0.0039,0.148438 c 0.682104,0.191376 1.165143,0.79328 1.19336,1.492187 a 0.07784028,0.07784028 0 0 0 0.144531,0.03711 l 1.5,-2.482422 a 0.07784028,0.07784028 0 0 0 -0.0918,-0.113281 z m -0.15039,0.214843 -1.310547,2.167969 c -0.09336,-0.623834 -0.501887,-1.131054 -1.09375,-1.365234 z"
             id="path14135" />
        </g>
      </g>
    </g>
    <circle
       style="fill:#000000;fill-opacity:1;stroke:none;stroke-width:0.415106"
       id="path1056-7"
       cx="88.537231"
       cy="91.272217"
       r="1.0377641" />
    <g
       aria-label="h"
       id="text5581"
       style="font-size:4.93889px;font-family:'Latin Modern Sans';-inkscape-font-specification:'Latin Modern Sans, Normal';stroke-width:0.207553">
      <path
         d="m 125.95088,121.83456 v -1.47179 c 0,-0.32597 -0.0741,-0.77541 -0.67663,-0.77541 -0.30621,0 -0.54328,0.15311 -0.70132,0.3556 v -1.53599 h -0.37042 v 3.42759 h 0.38523 v -1.21003 c 0,-0.32597 0.12348,-0.7359 0.49883,-0.7359 0.47413,0 0.47907,0.35067 0.47907,0.50871 v 1.43722 z"
         id="path14118" />
    </g>
    <g
       aria-label="p"
       id="text7367"
       style="font-size:4.93889px;font-family:'Latin Modern Sans';-inkscape-font-specification:'Latin Modern Sans, Normal';stroke-width:0.207553">
      <path
         d="m 104.00107,107.79711 c 0,-0.59267 -0.31115,-1.14582 -0.78529,-1.14582 -0.29633,0 -0.58278,0.10372 -0.80997,0.29633 v -0.242 h -0.37042 v 3.15101 h 0.38523 v -1.18534 c 0.15311,0.14323 0.37042,0.28152 0.66675,0.28152 0.47908,0 0.9137,-0.48401 0.9137,-1.1557 z m -0.38523,0 c 0,0.50871 -0.35067,0.85443 -0.72108,0.85443 -0.19262,0 -0.32597,-0.0988 -0.42475,-0.23213 -0.0494,-0.0741 -0.0494,-0.084 -0.0494,-0.17286 v -0.99272 c 0.11854,-0.17286 0.31115,-0.28645 0.52353,-0.28645 0.37535,0 0.67169,0.37535 0.67169,0.82973 z"
         id="path14113" />
    </g>
    <g
       aria-label="q"
       id="text9307"
       style="font-size:4.93889px;font-family:'Latin Modern Sans';-inkscape-font-specification:'Latin Modern Sans, Normal';stroke-width:0.207553">
      <path
         d="m 79.739105,97.673042 v -3.205339 h -0.370417 v 0.335844 c -0.04939,-0.06421 -0.291394,-0.335844 -0.676628,-0.335844 -0.493889,0 -0.918633,0.48895 -0.918633,1.1557 0,0.627239 0.360539,1.145822 0.834672,1.145822 0.276578,0 0.538339,-0.113595 0.745772,-0.301272 v 1.205089 z m -0.370417,-1.649589 c 0,0.0889 0,0.09878 -0.04939,0.162983 -0.128411,0.197556 -0.31115,0.281517 -0.48895,0.281517 -0.375355,0 -0.671689,-0.385234 -0.671689,-0.84455 0,-0.503767 0.3556,-0.839611 0.716139,-0.839611 0.340783,0 0.493889,0.350661 0.493889,0.548216 z"
         id="path14108" />
    </g>
    <g
       id="path1333-7-4">
      <path
         style="color:#000000;fill:#0c1aae;-inkscape-stroke:none"
         d="m 90.59375,91.537109 v 0.404297 h 29.05859 v -0.404297 z"
         id="path14106" />
      <g
         id="g14088">
        <g
           id="path14098">
          <path
             style="color:#000000;fill:#0c1aae;fill-rule:evenodd;stroke-width:0.151017;stroke-linejoin:round;-inkscape-stroke:none"
             d="m 92.700662,92.714068 -2.639989,-0.970791 2.639989,-0.97079 c -0.42176,0.573154 -0.41933,1.357329 0,1.941581 z"
             id="path14102" />
          <path
             style="color:#000000;fill:#0c1aae;fill-rule:evenodd;stroke-linejoin:round;-inkscape-stroke:none"
             d="m 92.673828,90.701172 -2.638672,0.970703 a 0.07551605,0.07551605 0 0 0 0,0.142578 l 2.638672,0.970703 a 0.07551605,0.07551605 0 0 0 0.08789,-0.115234 c -0.400748,-0.558362 -0.402192,-1.306955 0,-1.853516 a 0.07551605,0.07551605 0 0 0 -0.08789,-0.115234 z m -0.08789,0.193359 c -0.30763,0.528846 -0.307744,1.159154 -0.002,1.695313 l -2.304687,-0.847657 z"
             id="path14104" />
        </g>
        <g
           id="path14090">
          <path
             style="color:#000000;fill:#0c1aae;fill-rule:evenodd;stroke-width:0.151017;stroke-linejoin:round;-inkscape-stroke:none"
             d="m 117.54476,90.764748 2.63999,0.970791 -2.63999,0.97079 c 0.42176,-0.573154 0.41933,-1.357329 0,-1.941581 z"
             id="path14094" />
          <path
             style="color:#000000;fill:#0c1aae;fill-rule:evenodd;stroke-linejoin:round;-inkscape-stroke:none"
             d="m 117.57031,90.693359 a 0.07551605,0.07551605 0 0 0 -0.0859,0.115235 c 0.40074,0.558362 0.40219,1.306954 0,1.853515 a 0.07551605,0.07551605 0 0 0 0.0859,0.115235 l 2.64063,-0.970703 a 0.07551605,0.07551605 0 0 0 0,-0.142579 z m 0.0898,0.19336 2.30468,0.847656 -2.30468,0.847656 c 0.30619,-0.528904 0.3062,-1.159862 0,-1.695312 z"
             id="path14096" />
        </g>
      </g>
    </g>
    <g
       id="path1333-9-7">
      <path
         style="color:#000000;fill:#0c1aae;-inkscape-stroke:none"
         d="m 96.691406,84.3125 -6.486328,5.189453 0.259766,0.324219 6.486328,-5.189453 z"
         id="path14084" />
      <g
         id="g14066">
        <g
           id="path14076">
          <path
             style="color:#000000;fill:#0c1aae;fill-rule:evenodd;stroke-width:0.155665;stroke-linejoin:round;-inkscape-stroke:none"
             d="m 92.657819,89.091874 -2.750042,0.918554 1.499817,-2.481335 c 0.02959,0.732913 0.536494,1.362531 1.250225,1.562781 z"
             id="path14080" />
          <path
             style="color:#000000;fill:#0c1aae;fill-rule:evenodd;stroke-linejoin:round;-inkscape-stroke:none"
             d="m 91.427734,87.453125 a 0.07784028,0.07784028 0 0 0 -0.08594,0.03516 l -1.5,2.482422 a 0.07784028,0.07784028 0 0 0 0.08984,0.113281 l 2.75,-0.917968 a 0.07784028,0.07784028 0 0 0 -0.002,-0.148438 c -0.682103,-0.191376 -1.165142,-0.79328 -1.193359,-1.492187 a 0.07784028,0.07784028 0 0 0 -0.05859,-0.07227 z m -0.0332,0.25 c 0.09349,0.623649 0.500068,1.129155 1.091797,1.363281 l -2.402344,0.804688 z"
             id="path14082" />
        </g>
        <g
           id="path14068">
          <path
             style="color:#000000;fill:#0c1aae;fill-rule:evenodd;stroke-width:0.155665;stroke-linejoin:round;-inkscape-stroke:none"
             d="m 94.497352,85.047072 2.750042,-0.918554 -1.499817,2.481335 c -0.02959,-0.732913 -0.536494,-1.362531 -1.250225,-1.562781 z"
             id="path14072" />
          <path
             style="color:#000000;fill:#0c1aae;fill-rule:evenodd;stroke-linejoin:round;-inkscape-stroke:none"
             d="m 97.222656,84.054687 -2.75,0.917969 a 0.07784028,0.07784028 0 0 0 0.0039,0.148438 c 0.682104,0.191376 1.165143,0.79328 1.19336,1.492187 a 0.07784028,0.07784028 0 0 0 0.144531,0.03711 l 1.5,-2.482422 a 0.07784028,0.07784028 0 0 0 -0.0918,-0.113282 z m -0.15039,0.214844 -1.310547,2.167969 c -0.09336,-0.623834 -0.501887,-1.131055 -1.09375,-1.365234 z"
             id="path14074" />
        </g>
      </g>
    </g>
    <g
       aria-label="a"
       id="text9307-5"
       style="font-size:4.93889px;font-family:'Latin Modern Sans';-inkscape-font-specification:'Latin Modern Sans, Normal';stroke-width:0.207553">
      <path
         d="m 105.95258,94.461784 v -1.427339 c 0,-0.503766 -0.36053,-0.849488 -0.81491,-0.849488 -0.32103,0 -0.54328,0.07902 -0.77541,0.212372 l 0.0296,0.325966 c 0.25682,-0.182738 0.50376,-0.246944 0.74577,-0.246944 0.23213,0 0.42968,0.197556 0.42968,0.563033 v 0.212373 c -0.74083,0.0099 -1.36807,0.217311 -1.36807,0.651933 0,0.212372 0.13335,0.612422 0.56303,0.612422 0.0692,0 0.5334,-0.0099 0.81986,-0.232128 v 0.1778 z m -0.38523,-0.651933 c 0,0.09384 0,0.217311 -0.16792,0.31115 -0.14323,0.0889 -0.33091,0.09384 -0.38523,0.09384 -0.23707,0 -0.45932,-0.113595 -0.45932,-0.321028 0,-0.345722 0.8001,-0.380294 1.01247,-0.390172 z"
         id="path14059" />
    </g>
    <g
       aria-label="b"
       id="text9307-5-8"
       style="font-size:4.93889px;font-family:'Latin Modern Sans';-inkscape-font-specification:'Latin Modern Sans, Normal';stroke-width:0.207553">
      <path
         d="m 93.236901,85.965293 c 0,-0.612422 -0.335845,-1.145822 -0.8001,-1.145822 -0.192617,0 -0.498828,0.04939 -0.795162,0.291395 v -1.471789 h -0.370416 v 3.427589 h 0.385233 v -0.227189 c 0.118533,0.108655 0.330906,0.281516 0.661811,0.281516 0.493889,0 0.918634,-0.493888 0.918634,-1.1557 z m -0.385234,0 c 0,0.642056 -0.414866,0.854428 -0.716139,0.854428 -0.192616,0 -0.3556,-0.0889 -0.479072,-0.316089 v -1.091494 c 0.07902,-0.118534 0.256822,-0.291395 0.528461,-0.291395 0.291395,0 0.66675,0.212373 0.66675,0.84455 z"
         id="path14054" />
    </g>
  </g>
</svg>
